<mxfile host="app.diagrams.net" modified="2021-08-03T22:25:19.409Z" agent="5.0 (Windows NT 10.0; Win64; x64) AppleWebKit/537.36 (KHTML, like Gecko) Chrome/93.0.4577.18 Safari/537.36" etag="xmMrAKA6bApleJX0Xcp1" version="14.9.3" type="github" pages="2">
  <diagram id="0GY_L5HD-e9nnLbONCVm" name="Conceitual">
    <mxGraphModel dx="1900" dy="1087" grid="1" gridSize="10" guides="1" tooltips="1" connect="1" arrows="1" fold="1" page="1" pageScale="1" pageWidth="850" pageHeight="1100" math="0" shadow="0">
      <root>
        <mxCell id="0" />
        <mxCell id="1" parent="0" />
        <mxCell id="xa7CZ4oVmvCoAM0T0f8j-4" style="edgeStyle=orthogonalEdgeStyle;rounded=0;orthogonalLoop=1;jettySize=auto;html=1;endArrow=none;endFill=0;" parent="1" source="xa7CZ4oVmvCoAM0T0f8j-1" target="xa7CZ4oVmvCoAM0T0f8j-3" edge="1">
          <mxGeometry relative="1" as="geometry" />
        </mxCell>
        <mxCell id="xa7CZ4oVmvCoAM0T0f8j-1" value="empresa" style="rounded=0;whiteSpace=wrap;html=1;" parent="1" vertex="1">
          <mxGeometry x="50" y="370" width="120" height="60" as="geometry" />
        </mxCell>
        <mxCell id="xa7CZ4oVmvCoAM0T0f8j-18" style="edgeStyle=orthogonalEdgeStyle;rounded=0;orthogonalLoop=1;jettySize=auto;html=1;endArrow=none;endFill=0;" parent="1" source="xa7CZ4oVmvCoAM0T0f8j-2" target="xa7CZ4oVmvCoAM0T0f8j-17" edge="1">
          <mxGeometry relative="1" as="geometry" />
        </mxCell>
        <mxCell id="xa7CZ4oVmvCoAM0T0f8j-2" value="veiculo" style="rounded=0;whiteSpace=wrap;html=1;" parent="1" vertex="1">
          <mxGeometry x="470" y="370" width="120" height="60" as="geometry" />
        </mxCell>
        <mxCell id="xa7CZ4oVmvCoAM0T0f8j-5" style="edgeStyle=orthogonalEdgeStyle;rounded=0;orthogonalLoop=1;jettySize=auto;html=1;entryX=0;entryY=0.5;entryDx=0;entryDy=0;endArrow=none;endFill=0;" parent="1" source="xa7CZ4oVmvCoAM0T0f8j-3" target="xa7CZ4oVmvCoAM0T0f8j-2" edge="1">
          <mxGeometry relative="1" as="geometry" />
        </mxCell>
        <mxCell id="xa7CZ4oVmvCoAM0T0f8j-3" value="possui" style="rhombus;whiteSpace=wrap;html=1;" parent="1" vertex="1">
          <mxGeometry x="260" y="370" width="145" height="60" as="geometry" />
        </mxCell>
        <mxCell id="xa7CZ4oVmvCoAM0T0f8j-6" value="1" style="text;html=1;align=center;verticalAlign=middle;resizable=0;points=[];autosize=1;strokeColor=none;" parent="1" vertex="1">
          <mxGeometry x="170" y="380" width="20" height="20" as="geometry" />
        </mxCell>
        <mxCell id="xa7CZ4oVmvCoAM0T0f8j-7" value="N" style="text;html=1;align=center;verticalAlign=middle;resizable=0;points=[];autosize=1;strokeColor=none;" parent="1" vertex="1">
          <mxGeometry x="450" y="380" width="20" height="20" as="geometry" />
        </mxCell>
        <mxCell id="Vpglz_BQcARkj1EzsNN4-1" style="edgeStyle=orthogonalEdgeStyle;rounded=0;orthogonalLoop=1;jettySize=auto;html=1;endArrow=none;endFill=0;" parent="1" source="xa7CZ4oVmvCoAM0T0f8j-8" target="Yg5ek2wrrnEKtSab4BHO-4" edge="1">
          <mxGeometry relative="1" as="geometry" />
        </mxCell>
        <mxCell id="xa7CZ4oVmvCoAM0T0f8j-8" value="cliente" style="rounded=0;whiteSpace=wrap;html=1;" parent="1" vertex="1">
          <mxGeometry x="200" y="110" width="120" height="60" as="geometry" />
        </mxCell>
        <mxCell id="xa7CZ4oVmvCoAM0T0f8j-14" style="edgeStyle=orthogonalEdgeStyle;rounded=0;orthogonalLoop=1;jettySize=auto;html=1;endArrow=none;endFill=0;" parent="1" source="xa7CZ4oVmvCoAM0T0f8j-11" target="xa7CZ4oVmvCoAM0T0f8j-2" edge="1">
          <mxGeometry relative="1" as="geometry" />
        </mxCell>
        <mxCell id="xa7CZ4oVmvCoAM0T0f8j-11" value="possui" style="rhombus;whiteSpace=wrap;html=1;" parent="1" vertex="1">
          <mxGeometry x="462.5" y="250" width="135" height="60" as="geometry" />
        </mxCell>
        <mxCell id="xa7CZ4oVmvCoAM0T0f8j-16" value="N" style="text;html=1;align=center;verticalAlign=middle;resizable=0;points=[];autosize=1;strokeColor=none;" parent="1" vertex="1">
          <mxGeometry x="530" y="170" width="20" height="20" as="geometry" />
        </mxCell>
        <mxCell id="xa7CZ4oVmvCoAM0T0f8j-24" style="edgeStyle=orthogonalEdgeStyle;rounded=0;orthogonalLoop=1;jettySize=auto;html=1;entryX=0.5;entryY=0;entryDx=0;entryDy=0;endArrow=none;endFill=0;" parent="1" source="xa7CZ4oVmvCoAM0T0f8j-17" target="xa7CZ4oVmvCoAM0T0f8j-19" edge="1">
          <mxGeometry relative="1" as="geometry" />
        </mxCell>
        <mxCell id="xa7CZ4oVmvCoAM0T0f8j-17" value="possui" style="rhombus;whiteSpace=wrap;html=1;" parent="1" vertex="1">
          <mxGeometry x="457.5" y="480" width="145" height="60" as="geometry" />
        </mxCell>
        <mxCell id="Yg5ek2wrrnEKtSab4BHO-3" style="edgeStyle=orthogonalEdgeStyle;rounded=0;orthogonalLoop=1;jettySize=auto;html=1;endArrow=none;endFill=0;" parent="1" source="xa7CZ4oVmvCoAM0T0f8j-19" target="xa7CZ4oVmvCoAM0T0f8j-20" edge="1">
          <mxGeometry relative="1" as="geometry" />
        </mxCell>
        <mxCell id="xa7CZ4oVmvCoAM0T0f8j-19" value="modelo" style="rounded=0;whiteSpace=wrap;html=1;" parent="1" vertex="1">
          <mxGeometry x="470" y="590" width="120" height="60" as="geometry" />
        </mxCell>
        <mxCell id="Yg5ek2wrrnEKtSab4BHO-2" style="edgeStyle=orthogonalEdgeStyle;rounded=0;orthogonalLoop=1;jettySize=auto;html=1;entryX=0.5;entryY=0;entryDx=0;entryDy=0;endArrow=none;endFill=0;" parent="1" source="xa7CZ4oVmvCoAM0T0f8j-20" target="xa7CZ4oVmvCoAM0T0f8j-27" edge="1">
          <mxGeometry relative="1" as="geometry" />
        </mxCell>
        <mxCell id="xa7CZ4oVmvCoAM0T0f8j-20" value="possui" style="rhombus;whiteSpace=wrap;html=1;" parent="1" vertex="1">
          <mxGeometry x="457.5" y="690" width="145" height="60" as="geometry" />
        </mxCell>
        <mxCell id="xa7CZ4oVmvCoAM0T0f8j-27" value="marca" style="rounded=0;whiteSpace=wrap;html=1;" parent="1" vertex="1">
          <mxGeometry x="470" y="790" width="120" height="60" as="geometry" />
        </mxCell>
        <mxCell id="xa7CZ4oVmvCoAM0T0f8j-30" value="1" style="text;html=1;align=center;verticalAlign=middle;resizable=0;points=[];autosize=1;strokeColor=none;" parent="1" vertex="1">
          <mxGeometry x="510" y="570" width="20" height="20" as="geometry" />
        </mxCell>
        <mxCell id="xa7CZ4oVmvCoAM0T0f8j-33" value="1" style="text;html=1;align=center;verticalAlign=middle;resizable=0;points=[];autosize=1;strokeColor=none;" parent="1" vertex="1">
          <mxGeometry x="320" y="120" width="20" height="20" as="geometry" />
        </mxCell>
        <mxCell id="xa7CZ4oVmvCoAM0T0f8j-34" value="1" style="text;html=1;align=center;verticalAlign=middle;resizable=0;points=[];autosize=1;strokeColor=none;" parent="1" vertex="1">
          <mxGeometry x="510" y="770" width="20" height="20" as="geometry" />
        </mxCell>
        <mxCell id="Vpglz_BQcARkj1EzsNN4-2" style="edgeStyle=orthogonalEdgeStyle;rounded=0;orthogonalLoop=1;jettySize=auto;html=1;entryX=0.5;entryY=0;entryDx=0;entryDy=0;endArrow=none;endFill=0;" parent="1" source="Yg5ek2wrrnEKtSab4BHO-4" target="xa7CZ4oVmvCoAM0T0f8j-11" edge="1">
          <mxGeometry relative="1" as="geometry" />
        </mxCell>
        <mxCell id="Yg5ek2wrrnEKtSab4BHO-4" value="aluguel" style="rounded=0;whiteSpace=wrap;html=1;" parent="1" vertex="1">
          <mxGeometry x="475" y="110" width="110" height="60" as="geometry" />
        </mxCell>
        <mxCell id="Vpglz_BQcARkj1EzsNN4-3" value="N" style="text;html=1;align=center;verticalAlign=middle;resizable=0;points=[];autosize=1;strokeColor=none;" parent="1" vertex="1">
          <mxGeometry x="455" y="120" width="20" height="20" as="geometry" />
        </mxCell>
        <mxCell id="Vpglz_BQcARkj1EzsNN4-4" value="1" style="text;html=1;align=center;verticalAlign=middle;resizable=0;points=[];autosize=1;strokeColor=none;" parent="1" vertex="1">
          <mxGeometry x="532.5" y="350" width="20" height="20" as="geometry" />
        </mxCell>
        <mxCell id="Vpglz_BQcARkj1EzsNN4-5" value="N" style="text;html=1;align=center;verticalAlign=middle;resizable=0;points=[];autosize=1;strokeColor=none;" parent="1" vertex="1">
          <mxGeometry x="510" y="430" width="20" height="20" as="geometry" />
        </mxCell>
        <mxCell id="Vpglz_BQcARkj1EzsNN4-6" value="N" style="text;html=1;align=center;verticalAlign=middle;resizable=0;points=[];autosize=1;strokeColor=none;" parent="1" vertex="1">
          <mxGeometry x="510" y="650" width="20" height="20" as="geometry" />
        </mxCell>
      </root>
    </mxGraphModel>
  </diagram>
  <diagram id="AWrg6pTCMHQZlrswXjN0" name="Logico">
    <mxGraphModel dx="1900" dy="1087" grid="1" gridSize="10" guides="1" tooltips="1" connect="1" arrows="1" fold="1" page="1" pageScale="1" pageWidth="827" pageHeight="1169" math="0" shadow="0">
      <root>
        <mxCell id="Ag5Fnz0r0De6I2TxIiIk-0" />
        <mxCell id="Ag5Fnz0r0De6I2TxIiIk-1" parent="Ag5Fnz0r0De6I2TxIiIk-0" />
        <mxCell id="4K7FqDGUOg_SrokQbT2I-13" value="Empresa" style="shape=table;startSize=30;container=1;collapsible=1;childLayout=tableLayout;fixedRows=1;rowLines=0;fontStyle=1;align=center;resizeLast=1;" parent="Ag5Fnz0r0De6I2TxIiIk-1" vertex="1">
          <mxGeometry x="80" y="40" width="180" height="130" as="geometry" />
        </mxCell>
        <mxCell id="4K7FqDGUOg_SrokQbT2I-14" value="" style="shape=partialRectangle;collapsible=0;dropTarget=0;pointerEvents=0;fillColor=none;top=0;left=0;bottom=0;right=0;points=[[0,0.5],[1,0.5]];portConstraint=eastwest;" parent="4K7FqDGUOg_SrokQbT2I-13" vertex="1">
          <mxGeometry y="30" width="180" height="30" as="geometry" />
        </mxCell>
        <mxCell id="4K7FqDGUOg_SrokQbT2I-15" value="PK" style="shape=partialRectangle;connectable=0;fillColor=none;top=0;left=0;bottom=0;right=0;fontStyle=1;overflow=hidden;" parent="4K7FqDGUOg_SrokQbT2I-14" vertex="1">
          <mxGeometry width="60" height="30" as="geometry" />
        </mxCell>
        <mxCell id="4K7FqDGUOg_SrokQbT2I-16" value="IdEmpresa" style="shape=partialRectangle;connectable=0;fillColor=none;top=0;left=0;bottom=0;right=0;align=left;spacingLeft=6;fontStyle=5;overflow=hidden;" parent="4K7FqDGUOg_SrokQbT2I-14" vertex="1">
          <mxGeometry x="60" width="120" height="30" as="geometry" />
        </mxCell>
        <mxCell id="4K7FqDGUOg_SrokQbT2I-17" value="" style="shape=partialRectangle;collapsible=0;dropTarget=0;pointerEvents=0;fillColor=none;top=0;left=0;bottom=1;right=0;points=[[0,0.5],[1,0.5]];portConstraint=eastwest;" parent="4K7FqDGUOg_SrokQbT2I-13" vertex="1">
          <mxGeometry y="60" width="180" height="30" as="geometry" />
        </mxCell>
        <mxCell id="4K7FqDGUOg_SrokQbT2I-18" value="FK" style="shape=partialRectangle;connectable=0;fillColor=none;top=0;left=0;bottom=0;right=0;fontStyle=1;overflow=hidden;" parent="4K7FqDGUOg_SrokQbT2I-17" vertex="1">
          <mxGeometry width="60" height="30" as="geometry" />
        </mxCell>
        <mxCell id="4K7FqDGUOg_SrokQbT2I-19" value="Idveiculo" style="shape=partialRectangle;connectable=0;fillColor=none;top=0;left=0;bottom=0;right=0;align=left;spacingLeft=6;fontStyle=5;overflow=hidden;" parent="4K7FqDGUOg_SrokQbT2I-17" vertex="1">
          <mxGeometry x="60" width="120" height="30" as="geometry" />
        </mxCell>
        <mxCell id="4K7FqDGUOg_SrokQbT2I-20" value="" style="shape=partialRectangle;collapsible=0;dropTarget=0;pointerEvents=0;fillColor=none;top=0;left=0;bottom=0;right=0;points=[[0,0.5],[1,0.5]];portConstraint=eastwest;" parent="4K7FqDGUOg_SrokQbT2I-13" vertex="1">
          <mxGeometry y="90" width="180" height="30" as="geometry" />
        </mxCell>
        <mxCell id="4K7FqDGUOg_SrokQbT2I-21" value="" style="shape=partialRectangle;connectable=0;fillColor=none;top=0;left=0;bottom=0;right=0;editable=1;overflow=hidden;" parent="4K7FqDGUOg_SrokQbT2I-20" vertex="1">
          <mxGeometry width="60" height="30" as="geometry" />
        </mxCell>
        <mxCell id="4K7FqDGUOg_SrokQbT2I-22" value="nomeEmpresa" style="shape=partialRectangle;connectable=0;fillColor=none;top=0;left=0;bottom=0;right=0;align=left;spacingLeft=6;overflow=hidden;" parent="4K7FqDGUOg_SrokQbT2I-20" vertex="1">
          <mxGeometry x="60" width="120" height="30" as="geometry" />
        </mxCell>
        <mxCell id="4K7FqDGUOg_SrokQbT2I-26" value="Modelo" style="shape=table;startSize=30;container=1;collapsible=1;childLayout=tableLayout;fixedRows=1;rowLines=0;fontStyle=1;align=center;resizeLast=1;" parent="Ag5Fnz0r0De6I2TxIiIk-1" vertex="1">
          <mxGeometry x="80" y="210" width="180" height="130" as="geometry" />
        </mxCell>
        <mxCell id="4K7FqDGUOg_SrokQbT2I-27" value="" style="shape=partialRectangle;collapsible=0;dropTarget=0;pointerEvents=0;fillColor=none;top=0;left=0;bottom=1;right=0;points=[[0,0.5],[1,0.5]];portConstraint=eastwest;" parent="4K7FqDGUOg_SrokQbT2I-26" vertex="1">
          <mxGeometry y="30" width="180" height="30" as="geometry" />
        </mxCell>
        <mxCell id="4K7FqDGUOg_SrokQbT2I-28" value="PK" style="shape=partialRectangle;connectable=0;fillColor=none;top=0;left=0;bottom=0;right=0;fontStyle=1;overflow=hidden;" parent="4K7FqDGUOg_SrokQbT2I-27" vertex="1">
          <mxGeometry width="30" height="30" as="geometry" />
        </mxCell>
        <mxCell id="4K7FqDGUOg_SrokQbT2I-29" value="Idmodelo" style="shape=partialRectangle;connectable=0;fillColor=none;top=0;left=0;bottom=0;right=0;align=left;spacingLeft=6;fontStyle=5;overflow=hidden;" parent="4K7FqDGUOg_SrokQbT2I-27" vertex="1">
          <mxGeometry x="30" width="150" height="30" as="geometry" />
        </mxCell>
        <mxCell id="4K7FqDGUOg_SrokQbT2I-30" value="" style="shape=partialRectangle;collapsible=0;dropTarget=0;pointerEvents=0;fillColor=none;top=0;left=0;bottom=0;right=0;points=[[0,0.5],[1,0.5]];portConstraint=eastwest;" parent="4K7FqDGUOg_SrokQbT2I-26" vertex="1">
          <mxGeometry y="60" width="180" height="30" as="geometry" />
        </mxCell>
        <mxCell id="4K7FqDGUOg_SrokQbT2I-31" value="" style="shape=partialRectangle;connectable=0;fillColor=none;top=0;left=0;bottom=0;right=0;editable=1;overflow=hidden;" parent="4K7FqDGUOg_SrokQbT2I-30" vertex="1">
          <mxGeometry width="30" height="30" as="geometry" />
        </mxCell>
        <mxCell id="4K7FqDGUOg_SrokQbT2I-32" value="nomeMarca" style="shape=partialRectangle;connectable=0;fillColor=none;top=0;left=0;bottom=0;right=0;align=left;spacingLeft=6;overflow=hidden;" parent="4K7FqDGUOg_SrokQbT2I-30" vertex="1">
          <mxGeometry x="30" width="150" height="30" as="geometry" />
        </mxCell>
        <mxCell id="Pz1am5MtiOaXq87bbiYG-3" value="" style="shape=partialRectangle;collapsible=0;dropTarget=0;pointerEvents=0;fillColor=none;top=0;left=0;bottom=0;right=0;points=[[0,0.5],[1,0.5]];portConstraint=eastwest;" vertex="1" parent="4K7FqDGUOg_SrokQbT2I-26">
          <mxGeometry y="90" width="180" height="30" as="geometry" />
        </mxCell>
        <mxCell id="Pz1am5MtiOaXq87bbiYG-4" value="" style="shape=partialRectangle;connectable=0;fillColor=none;top=0;left=0;bottom=0;right=0;editable=1;overflow=hidden;" vertex="1" parent="Pz1am5MtiOaXq87bbiYG-3">
          <mxGeometry width="30" height="30" as="geometry" />
        </mxCell>
        <mxCell id="Pz1am5MtiOaXq87bbiYG-5" value="nomeModelo" style="shape=partialRectangle;connectable=0;fillColor=none;top=0;left=0;bottom=0;right=0;align=left;spacingLeft=6;overflow=hidden;" vertex="1" parent="Pz1am5MtiOaXq87bbiYG-3">
          <mxGeometry x="30" width="150" height="30" as="geometry" />
        </mxCell>
        <mxCell id="gTRoqzHyRj3YKMapOfb5-0" value="aluguel" style="shape=table;startSize=30;container=1;collapsible=1;childLayout=tableLayout;fixedRows=1;rowLines=0;fontStyle=1;align=center;resizeLast=1;" parent="Ag5Fnz0r0De6I2TxIiIk-1" vertex="1">
          <mxGeometry x="80" y="360" width="180" height="160" as="geometry" />
        </mxCell>
        <mxCell id="gTRoqzHyRj3YKMapOfb5-1" value="" style="shape=partialRectangle;collapsible=0;dropTarget=0;pointerEvents=0;fillColor=none;top=0;left=0;bottom=0;right=0;points=[[0,0.5],[1,0.5]];portConstraint=eastwest;" parent="gTRoqzHyRj3YKMapOfb5-0" vertex="1">
          <mxGeometry y="30" width="180" height="30" as="geometry" />
        </mxCell>
        <mxCell id="gTRoqzHyRj3YKMapOfb5-2" value="PK" style="shape=partialRectangle;connectable=0;fillColor=none;top=0;left=0;bottom=0;right=0;fontStyle=1;overflow=hidden;" parent="gTRoqzHyRj3YKMapOfb5-1" vertex="1">
          <mxGeometry width="60" height="30" as="geometry" />
        </mxCell>
        <mxCell id="gTRoqzHyRj3YKMapOfb5-3" value="Idaluguel" style="shape=partialRectangle;connectable=0;fillColor=none;top=0;left=0;bottom=0;right=0;align=left;spacingLeft=6;fontStyle=5;overflow=hidden;" parent="gTRoqzHyRj3YKMapOfb5-1" vertex="1">
          <mxGeometry x="60" width="120" height="30" as="geometry" />
        </mxCell>
        <mxCell id="gTRoqzHyRj3YKMapOfb5-4" value="" style="shape=partialRectangle;collapsible=0;dropTarget=0;pointerEvents=0;fillColor=none;top=0;left=0;bottom=1;right=0;points=[[0,0.5],[1,0.5]];portConstraint=eastwest;" parent="gTRoqzHyRj3YKMapOfb5-0" vertex="1">
          <mxGeometry y="60" width="180" height="30" as="geometry" />
        </mxCell>
        <mxCell id="gTRoqzHyRj3YKMapOfb5-5" value="FK" style="shape=partialRectangle;connectable=0;fillColor=none;top=0;left=0;bottom=0;right=0;fontStyle=1;overflow=hidden;" parent="gTRoqzHyRj3YKMapOfb5-4" vertex="1">
          <mxGeometry width="60" height="30" as="geometry" />
        </mxCell>
        <mxCell id="gTRoqzHyRj3YKMapOfb5-6" value="Idcliente" style="shape=partialRectangle;connectable=0;fillColor=none;top=0;left=0;bottom=0;right=0;align=left;spacingLeft=6;fontStyle=5;overflow=hidden;" parent="gTRoqzHyRj3YKMapOfb5-4" vertex="1">
          <mxGeometry x="60" width="120" height="30" as="geometry" />
        </mxCell>
        <mxCell id="gTRoqzHyRj3YKMapOfb5-7" value="" style="shape=partialRectangle;collapsible=0;dropTarget=0;pointerEvents=0;fillColor=none;top=0;left=0;bottom=0;right=0;points=[[0,0.5],[1,0.5]];portConstraint=eastwest;" parent="gTRoqzHyRj3YKMapOfb5-0" vertex="1">
          <mxGeometry y="90" width="180" height="30" as="geometry" />
        </mxCell>
        <mxCell id="gTRoqzHyRj3YKMapOfb5-8" value="" style="shape=partialRectangle;connectable=0;fillColor=none;top=0;left=0;bottom=0;right=0;editable=1;overflow=hidden;" parent="gTRoqzHyRj3YKMapOfb5-7" vertex="1">
          <mxGeometry width="60" height="30" as="geometry" />
        </mxCell>
        <mxCell id="gTRoqzHyRj3YKMapOfb5-9" value="DataRetirada" style="shape=partialRectangle;connectable=0;fillColor=none;top=0;left=0;bottom=0;right=0;align=left;spacingLeft=6;overflow=hidden;" parent="gTRoqzHyRj3YKMapOfb5-7" vertex="1">
          <mxGeometry x="60" width="120" height="30" as="geometry" />
        </mxCell>
        <mxCell id="gTRoqzHyRj3YKMapOfb5-10" value="" style="shape=partialRectangle;collapsible=0;dropTarget=0;pointerEvents=0;fillColor=none;top=0;left=0;bottom=0;right=0;points=[[0,0.5],[1,0.5]];portConstraint=eastwest;" parent="gTRoqzHyRj3YKMapOfb5-0" vertex="1">
          <mxGeometry y="120" width="180" height="30" as="geometry" />
        </mxCell>
        <mxCell id="gTRoqzHyRj3YKMapOfb5-11" value="" style="shape=partialRectangle;connectable=0;fillColor=none;top=0;left=0;bottom=0;right=0;editable=1;overflow=hidden;" parent="gTRoqzHyRj3YKMapOfb5-10" vertex="1">
          <mxGeometry width="60" height="30" as="geometry" />
        </mxCell>
        <mxCell id="gTRoqzHyRj3YKMapOfb5-12" value="DataDevolução" style="shape=partialRectangle;connectable=0;fillColor=none;top=0;left=0;bottom=0;right=0;align=left;spacingLeft=6;overflow=hidden;" parent="gTRoqzHyRj3YKMapOfb5-10" vertex="1">
          <mxGeometry x="60" width="120" height="30" as="geometry" />
        </mxCell>
        <mxCell id="gTRoqzHyRj3YKMapOfb5-13" value="cliente" style="shape=table;startSize=30;container=1;collapsible=1;childLayout=tableLayout;fixedRows=1;rowLines=0;fontStyle=1;align=center;resizeLast=1;" parent="Ag5Fnz0r0De6I2TxIiIk-1" vertex="1">
          <mxGeometry x="580" y="420" width="180" height="100" as="geometry" />
        </mxCell>
        <mxCell id="gTRoqzHyRj3YKMapOfb5-14" value="" style="shape=partialRectangle;collapsible=0;dropTarget=0;pointerEvents=0;fillColor=none;top=0;left=0;bottom=1;right=0;points=[[0,0.5],[1,0.5]];portConstraint=eastwest;" parent="gTRoqzHyRj3YKMapOfb5-13" vertex="1">
          <mxGeometry y="30" width="180" height="30" as="geometry" />
        </mxCell>
        <mxCell id="gTRoqzHyRj3YKMapOfb5-15" value="PK" style="shape=partialRectangle;connectable=0;fillColor=none;top=0;left=0;bottom=0;right=0;fontStyle=1;overflow=hidden;" parent="gTRoqzHyRj3YKMapOfb5-14" vertex="1">
          <mxGeometry width="30" height="30" as="geometry" />
        </mxCell>
        <mxCell id="gTRoqzHyRj3YKMapOfb5-16" value="Idcliente" style="shape=partialRectangle;connectable=0;fillColor=none;top=0;left=0;bottom=0;right=0;align=left;spacingLeft=6;fontStyle=5;overflow=hidden;" parent="gTRoqzHyRj3YKMapOfb5-14" vertex="1">
          <mxGeometry x="30" width="150" height="30" as="geometry" />
        </mxCell>
        <mxCell id="gTRoqzHyRj3YKMapOfb5-17" value="" style="shape=partialRectangle;collapsible=0;dropTarget=0;pointerEvents=0;fillColor=none;top=0;left=0;bottom=0;right=0;points=[[0,0.5],[1,0.5]];portConstraint=eastwest;" parent="gTRoqzHyRj3YKMapOfb5-13" vertex="1">
          <mxGeometry y="60" width="180" height="30" as="geometry" />
        </mxCell>
        <mxCell id="gTRoqzHyRj3YKMapOfb5-18" value="" style="shape=partialRectangle;connectable=0;fillColor=none;top=0;left=0;bottom=0;right=0;editable=1;overflow=hidden;" parent="gTRoqzHyRj3YKMapOfb5-17" vertex="1">
          <mxGeometry width="30" height="30" as="geometry" />
        </mxCell>
        <mxCell id="gTRoqzHyRj3YKMapOfb5-19" value="nomeCliente" style="shape=partialRectangle;connectable=0;fillColor=none;top=0;left=0;bottom=0;right=0;align=left;spacingLeft=6;overflow=hidden;" parent="gTRoqzHyRj3YKMapOfb5-17" vertex="1">
          <mxGeometry x="30" width="150" height="30" as="geometry" />
        </mxCell>
        <mxCell id="gTRoqzHyRj3YKMapOfb5-26" value="" style="edgeStyle=entityRelationEdgeStyle;fontSize=12;html=1;endArrow=ERoneToMany;entryX=1;entryY=0.5;entryDx=0;entryDy=0;exitX=0;exitY=0.5;exitDx=0;exitDy=0;" parent="Ag5Fnz0r0De6I2TxIiIk-1" source="gTRoqzHyRj3YKMapOfb5-14" target="gTRoqzHyRj3YKMapOfb5-4" edge="1">
          <mxGeometry width="100" height="100" relative="1" as="geometry">
            <mxPoint x="370" y="520" as="sourcePoint" />
            <mxPoint x="470" y="420" as="targetPoint" />
          </mxGeometry>
        </mxCell>
        <mxCell id="L0duOtfqtVBxD5hKSqtN-0" value="" style="edgeStyle=entityRelationEdgeStyle;fontSize=12;html=1;endArrow=ERoneToMany;entryX=1;entryY=0.5;entryDx=0;entryDy=0;exitX=0;exitY=0.5;exitDx=0;exitDy=0;" parent="Ag5Fnz0r0De6I2TxIiIk-1" source="L0duOtfqtVBxD5hKSqtN-5" target="gTRoqzHyRj3YKMapOfb5-1" edge="1">
          <mxGeometry width="100" height="100" relative="1" as="geometry">
            <mxPoint x="270" y="360" as="sourcePoint" />
            <mxPoint x="370" y="260" as="targetPoint" />
          </mxGeometry>
        </mxCell>
        <mxCell id="L0duOtfqtVBxD5hKSqtN-1" value="Veiculo" style="shape=table;startSize=30;container=1;collapsible=1;childLayout=tableLayout;fixedRows=1;rowLines=0;fontStyle=1;align=center;resizeLast=1;" parent="Ag5Fnz0r0De6I2TxIiIk-1" vertex="1">
          <mxGeometry x="580" y="210" width="180" height="160" as="geometry" />
        </mxCell>
        <mxCell id="L0duOtfqtVBxD5hKSqtN-2" value="" style="shape=partialRectangle;collapsible=0;dropTarget=0;pointerEvents=0;fillColor=none;top=0;left=0;bottom=0;right=0;points=[[0,0.5],[1,0.5]];portConstraint=eastwest;" parent="L0duOtfqtVBxD5hKSqtN-1" vertex="1">
          <mxGeometry y="30" width="180" height="30" as="geometry" />
        </mxCell>
        <mxCell id="L0duOtfqtVBxD5hKSqtN-3" value="PK" style="shape=partialRectangle;connectable=0;fillColor=none;top=0;left=0;bottom=0;right=0;fontStyle=1;overflow=hidden;" parent="L0duOtfqtVBxD5hKSqtN-2" vertex="1">
          <mxGeometry width="60" height="30" as="geometry" />
        </mxCell>
        <mxCell id="L0duOtfqtVBxD5hKSqtN-4" value="Idveiculo" style="shape=partialRectangle;connectable=0;fillColor=none;top=0;left=0;bottom=0;right=0;align=left;spacingLeft=6;fontStyle=5;overflow=hidden;" parent="L0duOtfqtVBxD5hKSqtN-2" vertex="1">
          <mxGeometry x="60" width="120" height="30" as="geometry" />
        </mxCell>
        <mxCell id="L0duOtfqtVBxD5hKSqtN-11" value="" style="shape=partialRectangle;collapsible=0;dropTarget=0;pointerEvents=0;fillColor=none;top=0;left=0;bottom=0;right=0;points=[[0,0.5],[1,0.5]];portConstraint=eastwest;" parent="L0duOtfqtVBxD5hKSqtN-1" vertex="1">
          <mxGeometry y="60" width="180" height="30" as="geometry" />
        </mxCell>
        <mxCell id="L0duOtfqtVBxD5hKSqtN-12" value="PK" style="shape=partialRectangle;connectable=0;fillColor=none;top=0;left=0;bottom=0;right=0;fontStyle=1;overflow=hidden;" parent="L0duOtfqtVBxD5hKSqtN-11" vertex="1">
          <mxGeometry width="60" height="30" as="geometry" />
        </mxCell>
        <mxCell id="L0duOtfqtVBxD5hKSqtN-13" value="Idmodelo" style="shape=partialRectangle;connectable=0;fillColor=none;top=0;left=0;bottom=0;right=0;align=left;spacingLeft=6;fontStyle=5;overflow=hidden;" parent="L0duOtfqtVBxD5hKSqtN-11" vertex="1">
          <mxGeometry x="60" width="120" height="30" as="geometry" />
        </mxCell>
        <mxCell id="L0duOtfqtVBxD5hKSqtN-5" value="" style="shape=partialRectangle;collapsible=0;dropTarget=0;pointerEvents=0;fillColor=none;top=0;left=0;bottom=1;right=0;points=[[0,0.5],[1,0.5]];portConstraint=eastwest;" parent="L0duOtfqtVBxD5hKSqtN-1" vertex="1">
          <mxGeometry y="90" width="180" height="30" as="geometry" />
        </mxCell>
        <mxCell id="L0duOtfqtVBxD5hKSqtN-6" value="FK" style="shape=partialRectangle;connectable=0;fillColor=none;top=0;left=0;bottom=0;right=0;fontStyle=1;overflow=hidden;" parent="L0duOtfqtVBxD5hKSqtN-5" vertex="1">
          <mxGeometry width="60" height="30" as="geometry" />
        </mxCell>
        <mxCell id="L0duOtfqtVBxD5hKSqtN-7" value="Idaluguel" style="shape=partialRectangle;connectable=0;fillColor=none;top=0;left=0;bottom=0;right=0;align=left;spacingLeft=6;fontStyle=5;overflow=hidden;" parent="L0duOtfqtVBxD5hKSqtN-5" vertex="1">
          <mxGeometry x="60" width="120" height="30" as="geometry" />
        </mxCell>
        <mxCell id="L0duOtfqtVBxD5hKSqtN-8" value="" style="shape=partialRectangle;collapsible=0;dropTarget=0;pointerEvents=0;fillColor=none;top=0;left=0;bottom=0;right=0;points=[[0,0.5],[1,0.5]];portConstraint=eastwest;" parent="L0duOtfqtVBxD5hKSqtN-1" vertex="1">
          <mxGeometry y="120" width="180" height="30" as="geometry" />
        </mxCell>
        <mxCell id="L0duOtfqtVBxD5hKSqtN-9" value="" style="shape=partialRectangle;connectable=0;fillColor=none;top=0;left=0;bottom=0;right=0;editable=1;overflow=hidden;" parent="L0duOtfqtVBxD5hKSqtN-8" vertex="1">
          <mxGeometry width="60" height="30" as="geometry" />
        </mxCell>
        <mxCell id="L0duOtfqtVBxD5hKSqtN-10" value="placa" style="shape=partialRectangle;connectable=0;fillColor=none;top=0;left=0;bottom=0;right=0;align=left;spacingLeft=6;overflow=hidden;" parent="L0duOtfqtVBxD5hKSqtN-8" vertex="1">
          <mxGeometry x="60" width="120" height="30" as="geometry" />
        </mxCell>
        <mxCell id="mN9rTHoo7gtHznbVs1Zv-0" value="" style="edgeStyle=entityRelationEdgeStyle;fontSize=12;html=1;endArrow=ERoneToMany;entryX=0;entryY=0.5;entryDx=0;entryDy=0;exitX=1;exitY=0.5;exitDx=0;exitDy=0;" parent="Ag5Fnz0r0De6I2TxIiIk-1" source="4K7FqDGUOg_SrokQbT2I-27" target="L0duOtfqtVBxD5hKSqtN-11" edge="1">
          <mxGeometry width="100" height="100" relative="1" as="geometry">
            <mxPoint x="350" y="210" as="sourcePoint" />
            <mxPoint x="460" y="200" as="targetPoint" />
          </mxGeometry>
        </mxCell>
        <mxCell id="mN9rTHoo7gtHznbVs1Zv-1" value="" style="edgeStyle=entityRelationEdgeStyle;fontSize=12;html=1;endArrow=ERoneToMany;entryX=0;entryY=0.5;entryDx=0;entryDy=0;" parent="Ag5Fnz0r0De6I2TxIiIk-1" source="4K7FqDGUOg_SrokQbT2I-17" target="L0duOtfqtVBxD5hKSqtN-2" edge="1">
          <mxGeometry width="100" height="100" relative="1" as="geometry">
            <mxPoint x="420" y="240" as="sourcePoint" />
            <mxPoint x="520" y="140" as="targetPoint" />
          </mxGeometry>
        </mxCell>
      </root>
    </mxGraphModel>
  </diagram>
</mxfile>
